<svg id="Capa_1" data-name="Capa 1" xmlns="http://www.w3.org/2000/svg" xmlns:xlink="http://www.w3.org/1999/xlink" viewBox="0 0 129.17 31.57"><defs><style>.cls-1{fill:none;}.cls-2{clip-path:url(#clip-path);}.cls-3{fill:#fff;}.cls-4{fill:#45725f;}.cls-5{fill:#afc396;}.cls-6{fill:#cedcae;}.cls-7{fill:#8b9d77;}</style><clipPath id="clip-path"><rect class="cls-1" width="129.17" height="31.57"/></clipPath></defs><g class="cls-2"><path class="cls-3" d="M12,16.68a5.53,5.53,0,0,1-2.27,4.83,6.51,6.51,0,0,1-3.84,1.17H5.6A7.3,7.3,0,0,1,0,20.29l1-1.12a4.87,4.87,0,0,0,4.21,2.41h.13a3,3,0,0,0,2.37-1A3.75,3.75,0,0,0,8.64,18v-.13a4.48,4.48,0,0,0-.82-2.63,17.38,17.38,0,0,0-2.7-2.63A24.1,24.1,0,0,1,2.23,9.83,5,5,0,0,1,1,6.69V6.41A5,5,0,0,1,3.15,2,6.49,6.49,0,0,1,6.89.92h.29a6.58,6.58,0,0,1,4.25,1.23L10.7,3.34A3.88,3.88,0,0,0,7.56,1.85h-.1a2.84,2.84,0,0,0-2.29,1,3.68,3.68,0,0,0-.85,2.48V5.5a3.44,3.44,0,0,0,.67,2A15.75,15.75,0,0,0,7.46,10a23.2,23.2,0,0,1,3.15,2.89A5.32,5.32,0,0,1,12,16.33Z"/></g><rect class="cls-3" x="14.01" y="1.52" width="3.44" height="20.98"/><g class="cls-2"><path class="cls-3" d="M38.39,20.86a16,16,0,0,1-8,2,10.53,10.53,0,0,1-8-3.05A10.86,10.86,0,0,1,19.59,12a10.69,10.69,0,0,1,3-7.83,10.45,10.45,0,0,1,7.81-3.05,12.22,12.22,0,0,1,7.36,2L36.9,4.44a6.46,6.46,0,0,0-2.54-1.7A8.8,8.8,0,0,0,31,2.07,6.64,6.64,0,0,0,25.46,5a11.18,11.18,0,0,0-2.1,7,11.58,11.58,0,0,0,2.07,7,6.63,6.63,0,0,0,5.58,3,7.82,7.82,0,0,0,4-.91V12h3.34Z"/></g><polygon class="cls-3" points="53.46 23.22 52.35 23.22 42.36 5.61 42.36 22.51 41.16 22.51 41.16 3.66 40.12 1.52 43.93 1.52 52.31 16.59 52.31 1.52 53.46 1.52 53.46 23.22"/><g class="cls-2"><path class="cls-3" d="M69.17,22.51H65.73V21a6.87,6.87,0,0,1-4.9,1.75,4.27,4.27,0,0,1-4.61-4.59V1.52h3.44V17.6q0,3.87,3.08,3.87a4,4,0,0,0,3-1.41V1.52h3.44Z"/></g><polygon class="cls-3" points="94.19 22.51 90.57 22.51 87.29 6.83 81.28 22.51 80.43 22.51 74.83 6.96 71.9 22.51 70.45 22.51 74.95 1.14 76.02 1.14 82.04 17.54 88.39 1.14 89.47 1.14 94.19 22.51"/><g class="cls-2"><path class="cls-3" d="M3.36,27.89h.86c1,0,2.05-.29,2.05-1.18s-1-1.11-2.07-1.11H3.36Zm-.81-2.84H4.67c1.46,0,2.41.49,2.41,1.66,0,.83-.81,1.38-1.83,1.48v0c.66.06.81.34,1.06.77l1.41,2.48h-.9L5.63,29.29c-.47-.82-.82-.85-1.6-.85H3.36v3H2.55Z"/></g><polygon class="cls-3" points="14.72 25.05 14.72 31.46 18.89 31.46 18.89 30.91 15.53 30.91 15.53 28.44 18.58 28.44 18.58 27.89 15.53 27.89 15.53 25.6 18.75 25.6 18.75 25.05 14.72 25.05"/><g class="cls-2"><path class="cls-3" d="M26,30.65a4,4,0,0,0,1.82.37c1,0,1.85-.4,1.85-1.31,0-1.26-3.77-1.42-3.77-3.1,0-1,1.15-1.67,2.6-1.67a6.35,6.35,0,0,1,1.61.21l-.13.58a4,4,0,0,0-1.49-.24c-.85,0-1.78.27-1.78,1.1,0,1.29,3.77,1.3,3.77,3.17,0,1.3-1.43,1.81-2.7,1.81A6.11,6.11,0,0,1,26,31.3Z"/></g><polygon class="cls-3" points="37.8 25.05 37.8 31.46 41.96 31.46 41.96 30.91 38.61 30.91 38.61 28.44 41.66 28.44 41.66 27.89 38.61 27.89 38.61 25.6 41.82 25.6 41.82 25.05 37.8 25.05"/><path class="cls-3" d="M52.24,25.66,54,29.19H50.45Zm-.4-.61-3.37,6.41h.79l.88-1.72h4.15l.88,1.72H56l-3.26-6.41Z"/><g class="cls-2"><path class="cls-3" d="M63.67,27.89h.86c1,0,2-.29,2-1.18s-1-1.11-2.07-1.11h-.84Zm-.81-2.84H65c1.46,0,2.41.49,2.41,1.66,0,.83-.81,1.38-1.82,1.48v0c.66.06.8.34,1.06.77L68,31.46h-.9L66,29.29a1.44,1.44,0,0,0-1.61-.85h-.67v3h-.81Z"/><path class="cls-3" d="M80.67,25.76a5.62,5.62,0,0,0-1.84-.27c-2.13,0-3.33,1.18-3.33,2.77S76.67,31,78.83,31a5.07,5.07,0,0,0,1.84-.27l0,.55a5.62,5.62,0,0,1-1.89.27c-2.59,0-4.14-1.33-4.14-3.31s1.6-3.32,4.14-3.32a6.49,6.49,0,0,1,1.89.24Z"/></g><polygon class="cls-3" points="93.53 25.05 93.53 27.89 89.37 27.89 89.37 25.05 88.56 25.05 88.56 31.46 89.37 31.46 89.37 28.44 93.53 28.44 93.53 31.46 94.34 31.46 94.34 25.05 93.53 25.05"/><g class="cls-2"><path class="cls-4" d="M100.29,7.9a10.55,10.55,0,0,0-2.9,8.19,11.43,11.43,0,0,0,4.69,8.17c-4.73-7.29.34-12.4.82-12.75.53.22,2.14,2.94,2.49,2.44a16.75,16.75,0,0,0,.94-6.33c-.18-2-6.19-3.26-8.15-3.08-1,.09,2.69,2.59,2.11,3.36"/><path class="cls-5" d="M126.57,22.28a10.57,10.57,0,0,0,2.08-8.43,11.49,11.49,0,0,0-5.48-7.67c5.43,6.79.89,12.38.44,12.78-.55-.18-2.42-2.72-2.72-2.19a16.83,16.83,0,0,0-.3,6.39c.36,1.93,6.48,2.63,8.41,2.26,1-.19-2.93-2.31-2.43-3.14"/><path class="cls-6" d="M120.05,2.68a10.61,10.61,0,0,0-8.3-2.59,11.44,11.44,0,0,0-8,5c7.11-5,12.4-.12,12.77.34-.2.54-2.86,2.25-2.34,2.59a16.94,16.94,0,0,0,6.35.7c2-.26,3-6.31,2.78-8.26-.13-1-2.49,2.78-3.28,2.23"/><path class="cls-7" d="M105.84,28.17a10.63,10.63,0,0,0,8.38,2.32A11.49,11.49,0,0,0,122,25.24c-7,5.23-12.4.52-12.79.07.19-.54,2.79-2.34,2.26-2.66a17,17,0,0,0-6.37-.49c-1.94.32-2.82,6.4-2.5,8.35.16,1,2.4-2.87,3.2-2.34"/></g></svg>